<svg width="256" height="256" viewBox="0 0 256 256" fill="currentColor" xmlns="http://www.w3.org/2000/svg">
<path fill-rule="evenodd" clip-rule="evenodd" d="M101 48C101 44.6863 103.686 42 107 42L209 42C212.314 42 215 44.6863 215 48C215 51.3137 212.314 54 209 54L107 54C103.686 54 101 51.3137 101 48Z"/>
<path fill-rule="evenodd" clip-rule="evenodd" d="M101 88C101 84.6863 103.686 82 107 82L229 82C232.314 82 235 84.6863 235 88C235 91.3137 232.314 94 229 94L107 94C103.686 94 101 91.3137 101 88Z"/>
<path fill-rule="evenodd" clip-rule="evenodd" d="M101 128C101 124.686 103.686 122 107 122L209 122C212.314 122 215 124.686 215 128C215 131.314 212.314 134 209 134L107 134C103.686 134 101 131.314 101 128Z"/>
<path fill-rule="evenodd" clip-rule="evenodd" d="M101 168C101 164.686 103.686 162 107 162L229 162C232.314 162 235 164.686 235 168C235 171.314 232.314 174 229 174L107 174C103.686 174 101 171.314 101 168Z"/>
<path fill-rule="evenodd" clip-rule="evenodd" d="M101 208C101 204.686 103.686 202 107 202H209C212.314 202 215 204.686 215 208C215 211.314 212.314 214 209 214H107C103.686 214 101 211.314 101 208Z"/>
<path fill-rule="evenodd" clip-rule="evenodd" d="M56 42C59.3137 42 62 44.6863 62 48L62 208C62 211.314 59.3137 214 56 214C52.6863 214 50 211.314 50 208L50 48C50 44.6863 52.6863 42 56 42Z"/>
<path fill-rule="evenodd" clip-rule="evenodd" d="M51.7574 43.7574C54.1005 41.4142 57.8995 41.4142 60.2426 43.7574L88.2426 71.7574C90.5858 74.1005 90.5858 77.8995 88.2426 80.2426C85.8995 82.5858 82.1005 82.5858 79.7574 80.2426L51.7574 52.2426C49.4142 49.8995 49.4142 46.1005 51.7574 43.7574Z"/>
<path fill-rule="evenodd" clip-rule="evenodd" d="M60.2426 43.7574C57.8995 41.4142 54.1005 41.4142 51.7574 43.7574L23.7574 71.7574C21.4142 74.1005 21.4142 77.8995 23.7574 80.2426C26.1005 82.5858 29.8995 82.5858 32.2426 80.2426L60.2426 52.2426C62.5858 49.8995 62.5858 46.1005 60.2426 43.7574Z"/>
<path fill-rule="evenodd" clip-rule="evenodd" d="M51.7574 212.243C54.1005 214.586 57.8995 214.586 60.2426 212.243L88.2426 184.243C90.5858 181.899 90.5858 178.101 88.2426 175.757C85.8995 173.414 82.1005 173.414 79.7574 175.757L51.7574 203.757C49.4142 206.101 49.4142 209.899 51.7574 212.243Z"/>
<path fill-rule="evenodd" clip-rule="evenodd" d="M60.2426 212.243C57.8995 214.586 54.1005 214.586 51.7574 212.243L23.7574 184.243C21.4142 181.899 21.4142 178.101 23.7574 175.757C26.1005 173.414 29.8995 173.414 32.2426 175.757L60.2426 203.757C62.5858 206.101 62.5858 209.899 60.2426 212.243Z"/>
</svg>
